HIERARCHY
ROOT Hips
{
 OFFSET 0.000000 0.000000 0.000000
 CHANNELS 6 Xposition Yposition Zposition Yrotation Xrotation Zrotation
 JOINT Chest
 {
  OFFSET 0.000000 9.585900 0.002600
  CHANNELS 3 Yrotation Xrotation Zrotation
  JOINT Chest2
  {
   OFFSET 0.000000 9.601200 -0.005300
   CHANNELS 3 Yrotation Xrotation Zrotation
   JOINT Chest3
   {
    OFFSET 0.000000 9.561800 0.000000
    CHANNELS 3 Yrotation Xrotation Zrotation
    JOINT Chest4
    {
     OFFSET 0.000000 9.552100 0.000000
     CHANNELS 3 Yrotation Xrotation Zrotation
     JOINT Neck
     {
      OFFSET 0.000000 14.453000 0.000000
      CHANNELS 3 Yrotation Xrotation Zrotation
      JOINT Head
      {
       OFFSET 0.000000 8.936500 -0.011300
       CHANNELS 3 Yrotation Xrotation Zrotation
       End Site
       {
        OFFSET 0.000000 17.073600 -0.006000
       }
      }
     }
     JOINT RightCollar
     {
      OFFSET -2.921100 9.558500 0.000000
      CHANNELS 3 Yrotation Xrotation Zrotation
      JOINT RightShoulder
      {
       OFFSET -13.519700 0.000000 0.000000
       CHANNELS 3 Yrotation Xrotation Zrotation
       JOINT RightElbow
       {
        OFFSET 0.000000 -29.696600 0.000000
        CHANNELS 3 Yrotation Xrotation Zrotation
        JOINT RightWrist
        {
         OFFSET 0.000000 -24.004700 0.000000
         CHANNELS 3 Yrotation Xrotation Zrotation
         End Site
         {
          OFFSET 0.000000 -17.728500 0.000000
         }
        }
       }
      }
     }
     JOINT LeftCollar
     {
      OFFSET 2.921100 9.558500 0.000000
      CHANNELS 3 Yrotation Xrotation Zrotation
      JOINT LeftShoulder
      {
       OFFSET 13.519700 0.000000 0.000000
       CHANNELS 3 Yrotation Xrotation Zrotation
       JOINT LeftElbow
       {
        OFFSET 0.000000 -29.696600 0.000000
        CHANNELS 3 Yrotation Xrotation Zrotation
        JOINT LeftWrist
        {
         OFFSET 0.000000 -24.004700 0.000000
         CHANNELS 3 Yrotation Xrotation Zrotation
         End Site
         {
          OFFSET 0.000000 -17.728500 0.000000
         }
        }
       }
      }
     }
    }
   }
  }
 }
 JOINT RightHip
 {
  OFFSET -7.771700 -0.012900 -0.001300
  CHANNELS 3 Yrotation Xrotation Zrotation
  JOINT RightKnee
  {
   OFFSET 0.000000 -40.869800 0.001200
   CHANNELS 3 Yrotation Xrotation Zrotation
   JOINT RightAnkle
   {
    OFFSET 0.000000 -39.717900 0.002100
    CHANNELS 3 Yrotation Xrotation Zrotation
    JOINT RightToe
    {
     OFFSET 0.000000 -4.965400 11.033500
     CHANNELS 3 Yrotation Xrotation Zrotation
     End Site
     {
      OFFSET 0.000000 -1.423100 5.872300
     }
    }
   }
  }
 }
 JOINT LeftHip
 {
  OFFSET 7.771700 -0.012900 -0.001300
  CHANNELS 3 Yrotation Xrotation Zrotation
  JOINT LeftKnee
  {
   OFFSET 0.000000 -40.869800 0.001200
   CHANNELS 3 Yrotation Xrotation Zrotation
   JOINT LeftAnkle
   {
    OFFSET 0.000000 -39.717900 0.002100
    CHANNELS 3 Yrotation Xrotation Zrotation
    JOINT LeftToe
    {
     OFFSET 0.000000 -4.965400 11.033500
     CHANNELS 3 Yrotation Xrotation Zrotation
     End Site
     {
      OFFSET 0.000000 -1.423100 5.872300
     }
    }
   }
  }
 }
}
MOTION
Frames: 12
Frame Time: 0.008333
0.000000 85.388000 0.000000 0.000000 -5.767877 0.000000 0.000000 11.653817 0.000000 0.000000 -5.885947 0.000000 0.000000 -0.000000 0.000000 0.000000 -0.000000 0.000000 0.000000 12.528835 0.000000 0.000000 0.711642 0.000000 0.000000 -0.000000 0.000000 0.000000 0.000000 -90.000000 0.000000 -2.309062 0.000000 0.000000 2.309062 0.000000 0.000000 -0.000000 0.000000 0.000000 -0.000000 90.000000 0.000000 -2.309062 0.000000 0.000000 2.309062 0.000000 0.000000 8.520406 0.000000 0.000000 1.905762 0.000000 -0.000000 -4.658285 0.000000 0.000000 -0.000000 0.000000 0.000000 8.520406 0.000000 0.000000 1.905762 0.000000 -0.000000 -4.658285 0.000000 0.000000 -0.000000 0.000000
-41.079228 46.530511 14.375266 177.026147 -30.981971 -3.596841 -0.403842 16.774326 1.242909 -0.085132 1.725171 0.163512 -0.111564 2.898932 0.256616 -0.513321 14.786601 1.311524 -2.542299 18.240541 0.111865 -4.760393 -1.759328 1.044934 -0.324238 1.832544 -1.673387 -6.848660 -12.367741 -16.671779 -113.475553 -63.287295 152.190641 -1.093974 -6.693420 -32.098655 -0.007848 -0.697625 1.207541 -3.501322 -1.968750 14.793977 70.699838 -69.311318 -110.056723 -0.798914 11.862795 11.219704 -1.995196 -56.453502 -7.380174 -152.248189 80.287151 -143.366332 -7.898668 -11.077939 -5.669430 0.073386 -0.282629 0.014237 -1.093550 -58.106862 11.051190 -114.421231 82.264803 -118.286752 5.309191 -6.875013 6.189169 0.019011 0.284887 -0.015810
-41.073737 46.531089 14.373310 177.012229 -30.992626 -3.582176 -0.385640 16.789370 1.233490 -0.061388 1.741257 0.152695 -0.115855 2.896104 0.259896 -0.517332 14.778627 1.313863 -2.563873 18.278907 0.121823 -4.835773 -1.708381 1.103944 -0.301902 1.818497 -1.683505 -7.005508 -12.463719 -16.798357 -114.758702 -63.011122 153.344256 -1.013639 -7.035140 -31.949250 -0.018318 -0.700044 1.209745 -3.508527 -1.977943 14.814341 70.704394 -69.322036 -110.062827 -0.799220 11.865149 11.209984 -2.019122 -56.445109 -7.361980 -152.227778 80.283843 -143.356067 -7.884736 -11.085566 -5.686580 0.084552 -0.277720 0.018745 -1.113992 -58.089668 11.040468 -114.497766 82.271818 -118.347886 5.338286 -6.892660 6.149980 0.019253 0.290352 -0.011655
-41.067366 46.531324 14.371933 176.999935 -30.999598 -3.567498 -0.344306 16.815854 1.226655 -0.087529 1.723405 0.158477 -0.110163 2.900578 0.258048 -0.491177 14.793479 1.295968 -2.606309 18.329122 0.145332 -4.905745 -1.684710 1.160618 -0.292224 1.795280 -1.676382 -7.148766 -12.548272 -16.914749 -116.038725 -62.744008 154.494554 -0.918675 -7.367723 -31.798281 -0.031917 -0.704244 1.216171 -3.515120 -2.003943 14.854377 70.718955 -69.329500 -110.076193 -0.788208 11.871151 11.183061 -2.019453 -56.440010 -7.360680 -152.203121 80.278916 -143.330385 -7.875019 -11.091575 -5.701423 0.088908 -0.270997 0.026077 -1.114575 -58.079412 11.031452 -114.562087 82.276909 -118.404927 5.349180 -6.904336 6.131955 0.015333 0.293413 -0.013518
-41.060024 46.531238 14.371324 176.988295 -31.002591 -3.554950 -0.328642 16.823567 1.220859 -0.078418 1.729658 0.157196 -0.116383 2.896275 0.258373 -0.443190 14.829281 1.272553 -2.652810 18.310081 0.188244 -4.990657 -1.618239 1.202044 -0.301276 1.755506 -1.657163 -7.286175 -12.627760 -17.020852 -117.302054 -62.486920 155.635772 -0.814814 -7.676809 -31.654984 -0.066045 -0.734803 1.231446 -3.521368 -2.021956 14.878907 70.713048 -69.332697 -110.068283 -0.789938 11.874272 11.166197 -2.024165 -56.441450 -7.350975 -152.174337 80.273820 -143.303752 -7.872802 -11.091225 -5.713726 0.087662 -0.271814 0.029573 -1.107471 -58.074794 11.023082 -114.602269 82.276593 -118.433493 5.350331 -6.913957 6.119842 0.016272 0.296017 -0.015003
-41.052272 46.530841 14.371601 176.979065 -31.001217 -3.544290 -0.315127 16.827623 1.215184 -0.055446 1.750875 0.153820 -0.127969 2.887028 0.258452 -0.427757 14.835973 1.269657 -2.710870 18.378201 0.195643 -5.052736 -1.625139 1.243003 -0.283945 1.739446 -1.659799 -7.421406 -12.702266 -17.116998 -118.539217 -62.238737 156.761196 -0.708047 -7.951954 -31.518199 -0.069629 -0.742575 1.224010 -3.525811 -2.041617 14.896167 70.707523 -69.334927 -110.058899 -0.797946 11.883508 11.152225 -2.026404 -56.448050 -7.342160 -152.149324 80.268860 -143.280790 -7.872728 -11.087700 -5.719636 0.086302 -0.275519 0.028259 -1.105701 -58.074311 11.016432 -114.609735 82.277913 -118.433257 5.373227 -6.919871 6.113768 0.018581 0.295656 -0.016053
-41.046761 46.530365 14.372126 176.971841 -30.998979 -3.521245 -0.301627 16.835503 1.199513 -0.053618 1.753205 0.150738 -0.111664 2.901765 0.255640 -0.414626 14.838679 1.264766 -2.754867 18.380791 0.213900 -5.137897 -1.574039 1.272914 -0.285769 1.716879 -1.651009 -7.539547 -12.768327 -17.210358 -119.733748 -62.000273 157.853459 -0.599702 -8.192705 -31.389350 -0.084446 -0.762319 1.228527 -3.537965 -2.053743 14.908909 70.723534 -69.326497 -110.051991 -0.807774 11.886092 11.152255 -1.997297 -56.454046 -7.369309 -152.155917 80.268333 -143.284176 -7.875994 -11.087457 -5.721190 0.084936 -0.275105 0.024370 -1.123863 -58.066856 11.009963 -114.575383 82.287555 -118.412420 5.400478 -6.925694 6.104191 -0.000748 0.300205 -0.024580
-41.040457 46.529706 14.373771 176.962634 -30.992054 -3.503810 -0.284865 16.838170 1.187167 -0.052235 1.757262 0.151494 -0.120606 2.891196 0.256844 -0.386662 14.860525 1.256511 -2.782971 18.366272 0.231114 -5.232520 -1.499468 1.292108 -0.303024 1.693736 -1.637141 -7.624212 -12.823713 -17.306818 -120.872275 -61.772088 158.894030 -0.494688 -8.409762 -31.268429 -0.083722 -0.774638 1.222733 -3.554205 -2.067487 14.925181 70.747264 -69.313240 -110.047359 -0.826298 11.901500 11.125076 -1.988298 -56.469640 -7.370102 -152.158922 80.266078 -143.293116 -7.886468 -11.079693 -5.717985 0.083317 -0.279312 0.020085 -1.104026 -58.072351 10.989496 -114.537786 82.286225 -118.367720 5.411895 -6.922765 6.095517 0.013357 0.297852 -0.021796
-41.035563 46.529334 14.375463 176.953936 -30.986294 -3.481016 -0.260269 16.856319 1.173032 -0.062365 1.746064 0.152025 -0.114378 2.896179 0.254556 -0.376784 14.865500 1.254191 -2.819834 18.389470 0.234372 -5.316631 -1.456624 1.313245 -0.281836 1.684518 -1.637790 -7.738336 -12.884090 -17.380132 -121.940164 -61.554382 159.869054 -0.394012 -8.617081 -31.160829 -0.078412 -0.784646 1.214868 -3.495856 -2.069566 14.897451 70.738859 -69.348284 -110.088096 -0.823812 11.900288 11.134879 -1.966646 -56.484109 -7.381193 -152.157725 80.262822 -143.298333 -7.902511 -11.074612 -5.712478 0.080154 -0.279988 0.020025 -1.096382 -58.071603 10.975084 -114.477134 82.290177 -118.314977 5.421911 -6.921921 6.090478 0.002831 0.296668 -0.015577
-41.033586 46.529279 14.376935 176.927438 -30.983112 -3.435195 -0.239473 16.862231 1.141310 -0.061181 1.747371 0.151529 -0.099396 2.914703 0.251762 -0.382134 14.849728 1.255024 -2.856612 18.421745 0.232401 -5.394967 -1.410117 1.326656 -0.229295 1.698646 -1.639169 -7.869377 -12.958774 -17.440744 -122.926795 -61.351547 160.772316 -0.293273 -8.827340 -31.078373 -0.063606 -0.784829 1.207919 -3.473054 -2.073069 14.880632 70.759880 -69.347708 -110.103912 -0.800559 11.879602 11.174183 -1.918459 -56.501486 -7.397578 -152.095902 80.250492 -143.253650 -7.947917 -11.039906 -5.712180 0.103121 -0.314189 0.032844 -1.074059 -58.065476 10.953569 -114.412679 82.295742 -118.274327 5.419064 -6.955787 6.094971 0.005367 0.331346 -0.018747
-41.028426 46.530029 14.378411 176.924818 -30.981747 -3.424785 -0.233509 16.871885 1.133439 -0.061543 1.745400 0.151247 -0.096798 2.918267 0.250462 -0.384350 14.841081 1.256119 -2.910890 18.494022 0.212177 -5.448514 -1.386603 1.341476 -0.211372 1.705701 -1.635624 -7.945672 -13.022420 -17.499570 -123.843368 -61.171738 161.611449 -0.191901 -9.053006 -31.019347 -0.043019 -0.775601 1.192657 -3.435895 -2.072119 14.860930 70.789485 -69.338744 -110.120232 -0.796495 11.872648 11.183229 -1.905210 -56.505497 -7.406600 -152.090201 80.248772 -143.248315 -7.938383 -11.035647 -5.709888 0.099997 -0.314927 0.030768 -1.083006 -58.060940 10.952566 -114.377325 82.300593 -118.242312 5.427575 -6.956240 6.086620 0.004905 0.332236 -0.015259
-41.023892 46.530517 14.381002 176.933216 -30.972230 -3.420835 -0.236942 16.873478 1.126817 -0.065976 1.738017 0.151116 -0.090900 2.925718 0.248942 -0.378324 14.847473 1.251056 -2.959755 18.532789 0.206096 -5.512330 -1.334461 1.347360 -0.197541 1.703866 -1.620400 -8.016772 -13.093857 -17.542687 -124.724989 -61.028302 162.405985 -0.092202 -9.309700 -30.963372 -0.031407 -0.783297 1.182658 -3.391836 -2.064011 14.840882 70.818769 -69.340298 -110.151771 -0.792078 11.865080 11.193995 -1.905701 -56.520055 -7.404689 -152.106095 80.248764 -143.269772 -7.948617 -11.026344 -5.704579 0.101728 -0.320227 0.031891 -1.103153 -58.064306 10.950798 -114.275827 82.302359 -118.137057 5.431583 -6.945327 6.070404 0.018258 0.331939 -0.011180
